<?xml version="1.0" encoding="UTF-8"?>
<svg width="64px" height="64px" viewBox="0 0 64 64" version="1.1" xmlns="http://www.w3.org/2000/svg" xmlns:xlink="http://www.w3.org/1999/xlink">
    <!-- Generator: sketchtool 49.1 (51147) - http://www.bohemiancoding.com/sketch -->
    <title>510932A5-ABD3-4E31-AD2F-187C029E7343</title>
    <desc>Created with sketchtool.</desc>
    <defs>
        <polyline id="path-1" points="0.0612180353 0.336593934 59.0437747 0.336593934 59.0437747 61.5046345 0.0612180353 61.5046345"></polyline>
    </defs>
    <g id="Furniture-Assembly" stroke="none" stroke-width="1" fill="none" fill-rule="evenodd">
        <g id="Furniture_Mobile-Updated" transform="translate(-156.000000, -2133.000000)">
            <g id="How-it-Works" transform="translate(0.000000, 1613.000000)">
                <g id="How-Handy-Works">
                    <g id="Male-Pro-Icon" transform="translate(156.000000, 520.000000)">
                        <g id="pro-hat" transform="translate(0.000000, 1.562741)">
                            <g id="Group-4">
                                <mask id="mask-2" fill="white">
                                    <use xlink:href="#path-1"></use>
                                </mask>
                                <g id="Clip-2"></g>
                                <path d="M47.5123375,38.0866954 L38.6704126,38.0866954 C35.0881372,42.4872518 32.7445068,42.7749766 29.5764734,42.7749766 L29.5305599,42.7749766 C26.3359988,42.7749766 23.9791044,42.4872518 20.3947885,38.0866954 L11.550823,38.0866954 C5.17088338,38.0866954 0,43.2585991 0,49.6364981 L0.00102030059,49.6364981 L0,61.5658525 L59.0437747,61.5658525 L59.0437747,48.9998305 C58.7111567,42.9167984 53.6769936,38.0866954 47.5123375,38.0866954" id="Fill-1" fill="#00CDED" mask="url(#mask-2)"></path>
                                <path d="M29.5305599,42.7749766 C26.3359988,42.7749766 23.9791044,42.4872518 20.3947885,38.0866954 L11.5498027,38.0866954 C5.17292398,38.0866954 0.00102030059,43.2585991 0.00102030059,49.6364981 L0.00102030059,61.5658525 L29.5326005,61.5658525 L29.5326005,42.7749766 L29.5305599,42.7749766" id="Fill-3" fill="#FFFFFF" opacity="0.3" mask="url(#mask-2)"></path>
                            </g>
                            <path d="M29.5326005,41.5536768 C33.1679315,41.5536768 35.7105206,41.5771437 42.3404338,30.4874966 C44.5718312,26.7531965 44.5453034,21.1956192 44.5453034,16.2124711 L44.5453034,15.1472773 L30.4223026,6.83998988 L22.4588565,10.0896473 L14.5188774,16.2124711 C14.5188774,21.1956192 14.4892887,26.7531965 16.7237469,30.4874966 C23.3516196,41.5771437 25.8952289,41.5536768 29.5326005,41.5536768" id="Fill-5" fill="#E2BDA5"></path>
                            <path d="M42.9883247,24.1595924 C42.9883247,25.0186855 43.6862103,25.7155508 44.5453034,25.7155508 C45.4043965,25.7155508 46.1022821,25.0186855 46.1022821,24.1595924 L46.1022821,19.9253449 C46.1022821,19.0652315 45.4043965,18.3683662 44.5453034,18.3683662 C43.6862103,18.3683662 42.9883247,19.0652315 42.9883247,19.9253449 L42.9883247,24.1595924" id="Fill-6" fill="#E2BDA5"></path>
                            <path d="M29.5326005,6.78693425 L14.5188774,15.1472773 L14.5188774,16.2124711 C14.5188774,16.9226003 14.5188774,17.6429325 14.5229586,18.3683662 L14.5188774,18.3683662 C13.6577437,18.3683662 12.9608784,19.0652315 12.9608784,19.9253449 L12.9608784,24.1595924 C12.9608784,25.0207261 13.6577437,25.7155508 14.5188774,25.7155508 C14.7025315,25.7155508 14.8759826,25.6788199 15.040251,25.6196425 C15.362666,27.4153715 15.881999,29.0825427 16.7237469,30.4874966 C23.3516196,41.5771437 25.8952289,41.5536768 29.5326005,41.5536768 L29.5326005,6.78693425" id="Fill-7" fill="#F8D2BB"></path>
                            <path d="M34.3484193,30.6487041 C34.3484193,33.1810902 32.2955745,35.2339349 29.7621682,35.2339349 C27.2308024,35.2339349 25.1779576,33.1810902 25.1779576,30.6487041 L34.3484193,30.6487041" id="Fill-8" fill="#FFFFFE"></path>
                            <polygon id="Fill-9" fill="#1C1D1A" points="42.7597773 13.49337 44.5463237 13.49337 44.5463237 22.1730671 42.7597773 22.1730671"></polygon>
                            <path d="M37.4378895,22.0812401 C37.4378895,22.6587302 36.9695715,23.1260279 36.3931017,23.1260279 C35.8156115,23.1260279 35.3472936,22.6587302 35.3472936,22.0812401 C35.3472936,21.5037499 35.8156115,21.0374726 36.3931017,21.0374726 C36.9695715,21.0374726 37.4378895,21.5037499 37.4378895,22.0812401" id="Fill-10" fill="#1C1D1A"></path>
                            <polygon id="Fill-11" fill="#1C1D1A" points="14.5178571 16.079832 16.3044034 16.079832 16.3044034 22.1730671 14.5178571 22.1730671"></polygon>
                            <path d="M23.712806,22.0812401 C23.712806,22.6587302 23.2455083,23.1260279 22.6700588,23.1260279 C22.090528,23.1260279 21.625271,22.6587302 21.625271,22.0812401 C21.625271,21.5037499 22.090528,21.0374726 22.6700588,21.0374726 C23.2455083,21.0374726 23.712806,21.5037499 23.712806,22.0812401" id="Fill-12" fill="#1C1D1A"></path>
                            <path d="M29.9590862,0.336593934 C12.9863859,0.336593934 14.5494864,16.6083477 14.5494864,16.6083477 C14.5494864,16.6083477 26.71351,11.5741846 30.6386064,13.3035941 C32.2200723,14.0657586 29.9590862,1.72726364 29.9590862,0.336593934" id="Fill-13" fill="#4DDCF2"></path>
                            <path d="M29.9590862,0.336593934 L29.9590862,13.3413452 L44.9279161,16.6083477 C44.9279161,16.6083477 46.6930361,0.480456317 29.9590862,0.336593934" id="Fill-14" fill="#00CDED"></path>
                            <path d="M14.4964308,16.9021943 C14.4964308,15.5900877 14.7739525,9.6447962 24.3311081,8.88569256 C35.1360914,7.71030628 44.1290207,10.6926449 44.1290207,10.6926449 C44.1290207,10.6926449 48.2255276,11.6486666 46.7011985,14.0667789 C45.1778897,16.14105 44.5901966,17.0756454 44.5901966,17.0756454 C44.5901966,17.0756454 29.7335997,11.3742057 14.4964308,16.9021943" id="Fill-15" fill="#1A8895"></path>
                            <polygon id="Fill-23-Copy-2" fill="#FFFFFF" points="41.0220321 55.4856303 50.0141154 53.5744496 50.0141154 49.0912844 41.0214842 51.0024651"></polygon>
                        </g>
                        <path d="M57.9557277,12.5019265 C57.9557277,9.32487443 60.5311245,6.74947757 63.7081766,6.74947757 L63.7081766,6.11656754 C60.5311245,6.11656754 57.9557277,3.54117068 57.9557277,0.36411861 L57.3228176,0.36411861 C57.3228176,3.54117068 54.7474208,6.11656754 51.5703687,6.11656754 L51.5703687,6.74947757 C54.7474208,6.74947757 57.3228176,9.32487443 57.3228176,12.5019265 L57.9557277,12.5019265 Z" id="Fill-3" fill="#FFB600"></path>
                    </g>
                </g>
            </g>
        </g>
    </g>
</svg>