<?xml version="1.0" encoding="UTF-8"?>
<svg width="64px" height="64px" viewBox="0 0 64 64" version="1.1" xmlns="http://www.w3.org/2000/svg" xmlns:xlink="http://www.w3.org/1999/xlink">
    <!-- Generator: sketchtool 49.1 (51147) - http://www.bohemiancoding.com/sketch -->
    <title>E451B43D-D609-45C8-91C8-33B69BBBAEB3@2x</title>
    <desc>Created with sketchtool.</desc>
    <defs>
        <polyline id="path-1" points="0 0.350635571 57.789244 0.350635571 57.789244 53.424334 0 53.424334"></polyline>
        <polygon id="path-3" points="0 0.540213053 58.1818182 0.540213053 58.1818182 53.8343467 0 53.8343467"></polygon>
        <ellipse id="path-5" cx="18.9090909" cy="18.5454545" rx="18.9090909" ry="18.5454545"></ellipse>
    </defs>
    <g id="Furniture-Assembly" stroke="none" stroke-width="1" fill="none" fill-rule="evenodd">
        <g id="Furniture_Mobile-Updated" transform="translate(-155.000000, -1723.000000)">
            <g id="How-it-Works" transform="translate(0.000000, 1613.000000)">
                <g id="How-Handy-Works">
                    <g id="Pick-Time" transform="translate(155.000000, 110.000000)">
                        <g id="pick-time">
                            <g id="Page-1" transform="translate(5.818182, 0.000000)">
                                <g id="Group-3" transform="translate(0.000000, 0.699655)">
                                    <mask id="mask-2" fill="white">
                                        <use xlink:href="#path-1"></use>
                                    </mask>
                                    <g id="Clip-2"></g>
                                    <path d="M54.202733,5.6384779 L49.4128383,5.6384779 L49.4128383,7.88229992 C49.4128383,9.42485081 48.1610105,10.6800156 46.6225608,10.6800156 C45.084111,10.6800156 43.8322833,9.42485081 43.8322833,7.88229992 L43.8322833,5.6384779 L13.9580632,5.6384779 L13.9580632,7.88229992 C13.9580632,9.42485081 12.7062354,10.6800156 11.1671732,10.6800156 C9.62872344,10.6800156 8.37750813,9.42485081 8.37750813,7.88229992 L8.37750813,5.6384779 L3.5876134,5.6384779 C1.60943158,5.6384779 -6.1244019e-05,7.25164715 -6.1244019e-05,9.23510231 L-6.1244019e-05,15.9082315 L57.7897952,15.9082315 L57.7897952,9.23510231 C57.7897952,7.25164715 56.1809148,5.6384779 54.202733,5.6384779" id="Fill-1" fill="#00CDED" mask="url(#mask-2)"></path>
                                </g>
                                <mask id="mask-4" fill="white">
                                    <use xlink:href="#path-3"></use>
                                </mask>
                                <g id="Clip-5"></g>
                                <polygon id="Fill-4" fill="#00CDED" mask="url(#mask-4)" points="35.4333397 44.2546106 46.0604019 44.2546106 46.0604019 36.2673657 35.4333397 36.2673657"></polygon>
                                <polygon id="Fill-6" fill="#8BC653" mask="url(#mask-4)" points="46.0604019 27.051361 35.4333397 27.051361 35.4333397 35.038606 46.0604019 35.038606"></polygon>
                                <polygon id="Fill-7" fill="#00CDED" mask="url(#mask-4)" points="46.0604019 17.8359705 35.4333397 17.8359705 35.4333397 25.8232154 46.0604019 25.8232154"></polygon>
                                <polygon id="Fill-8" fill="#00CDED" mask="url(#mask-4)" points="47.2852823 25.8232154 57.789244 25.8232154 57.789244 17.8359705 47.2852823 17.8359705"></polygon>
                                <polygon id="Fill-9" fill="#00CDED" mask="url(#mask-4)" points="23.5807847 44.2546106 34.2084593 44.2546106 34.2084593 36.2673657 23.5807847 36.2673657"></polygon>
                                <polygon id="Fill-10" fill="#00CDED" mask="url(#mask-4)" points="47.2852823 35.0392201 57.789244 35.0392201 57.789244 27.0519751 47.2852823 27.0519751"></polygon>
                                <polygon id="Fill-11" fill="#00CDED" mask="url(#mask-4)" points="47.2852823 44.2546106 57.789244 44.2546106 57.789244 36.2673657 47.2852823 36.2673657"></polygon>
                                <polygon id="Fill-12" fill="#00CDED" mask="url(#mask-4)" points="34.2084593 27.051361 23.5813971 27.051361 23.5813971 35.038606 34.2084593 35.038606"></polygon>
                                <polygon id="Fill-13" fill="#00CDED" mask="url(#mask-4)" points="10.5045742 17.8359705 0 17.8359705 0 25.8232154 10.5045742 25.8232154"></polygon>
                                <polygon id="Fill-14" fill="#00CDED" mask="url(#mask-4)" points="10.5045742 36.2673657 0 36.2673657 0 44.2546106 10.5045742 44.2546106"></polygon>
                                <polygon id="Fill-15" fill="#00CDED" mask="url(#mask-4)" points="10.5045742 27.051361 0 27.051361 0 35.038606 10.5045742 35.038606"></polygon>
                                <path d="M0,45.4828791 L0,50.5268731 C0,52.5103282 1.60949282,54.1241116 3.58767464,54.1241116 L54.2027943,54.1241116 C56.1803636,54.1241116 57.789244,52.5103282 57.789244,50.5268731 L57.789244,45.4828791 L0,45.4828791 Z" id="Fill-16" fill="#00CDED" mask="url(#mask-4)"></path>
                                <polygon id="Fill-17" fill="#00CDED" mask="url(#mask-4)" points="22.3559043 17.8359705 11.7288421 17.8359705 11.7288421 25.8232154 22.3559043 25.8232154"></polygon>
                                <polygon id="Fill-18" fill="#00CDED" mask="url(#mask-4)" points="22.3559043 27.051361 11.7288421 27.051361 11.7288421 35.038606 22.3559043 35.038606"></polygon>
                                <polygon id="Fill-19" fill="#00CDED" mask="url(#mask-4)" points="11.7294545 44.2546106 22.3565167 44.2546106 22.3565167 36.2673657 11.7294545 36.2673657"></polygon>
                                <polygon id="Fill-20" fill="#00CDED" mask="url(#mask-4)" points="34.2084593 17.8359705 23.5813971 17.8359705 23.5813971 25.8232154 34.2084593 25.8232154"></polygon>
                                <path d="M12.733244,2.61979903 C12.733244,1.75272823 12.032,1.05022894 11.1672344,1.05022894 C10.3030813,1.05022894 9.60244976,1.75272823 9.60244976,2.61979903 L9.60244976,8.58183188 C9.60244976,9.44890268 10.3030813,10.151402 11.1672344,10.151402 C12.032,10.151402 12.733244,9.44890268 12.733244,8.58183188 L12.733244,2.61979903 Z" id="Fill-21" fill="#232220" mask="url(#mask-4)"></path>
                                <path d="M48.1877742,2.61979903 C48.1877742,1.75272823 47.4871426,1.05022894 46.622377,1.05022894 C45.7576115,1.05022894 45.0575923,1.75272823 45.0575923,2.61979903 L45.0575923,8.58183188 C45.0575923,9.44890268 45.7576115,10.151402 46.622377,10.151402 C47.4871426,10.151402 48.1877742,9.44890268 48.1877742,8.58183188 L48.1877742,2.61979903 Z" id="Fill-22" fill="#232220" mask="url(#mask-4)"></path>
                                <polygon id="Fill-23" fill="#9BE1F2" mask="url(#mask-4)" points="23.5807847 44.2546106 28.8943158 44.2546106 28.8943158 36.2673657 23.5807847 36.2673657"></polygon>
                                <polygon id="Fill-24" fill="#9BE1F2" mask="url(#mask-4)" points="22.3559043 27.051361 11.7288421 27.051361 11.7288421 35.038606 22.3559043 35.038606"></polygon>
                                <polygon id="Fill-25" fill="#9BE1F2" mask="url(#mask-4)" points="23.5807847 25.8232154 28.8943158 25.8232154 28.8943158 17.8359705 23.5807847 17.8359705"></polygon>
                                <polygon id="Fill-26" fill="#9BE1F2" mask="url(#mask-4)" points="23.5807847 35.0392201 28.8943158 35.0392201 28.8943158 27.0519751 23.5807847 27.0519751"></polygon>
                                <polygon id="Fill-27" fill="#9BE1F2" mask="url(#mask-4)" points="10.5045742 36.2673657 0 36.2673657 0 44.2546106 10.5045742 44.2546106"></polygon>
                                <path d="M0,45.4828791 L0,50.5268731 C0,52.5103282 1.60949282,54.1241116 3.58767464,54.1241116 L28.8949282,54.1241116 L28.8949282,45.4828791 L0,45.4828791 Z" id="Fill-28" fill="#9BE1F2" mask="url(#mask-4)"></path>
                                <polygon id="Fill-29" fill="#9BE1F2" mask="url(#mask-4)" points="10.5045742 17.8359705 0 17.8359705 0 25.8232154 10.5045742 25.8232154"></polygon>
                                <polygon id="Fill-30" fill="#9BE1F2" mask="url(#mask-4)" points="11.7294545 44.2546106 22.3565167 44.2546106 22.3565167 36.2673657 11.7294545 36.2673657"></polygon>
                                <polygon id="Fill-31" fill="#9BE1F2" mask="url(#mask-4)" points="22.3559043 17.8359705 11.7288421 17.8359705 11.7288421 25.8232154 22.3559043 25.8232154"></polygon>
                                <polygon id="Fill-32" fill="#9BE1F2" mask="url(#mask-4)" points="10.5045742 27.051361 0 27.051361 0 35.038606 10.5045742 35.038606"></polygon>
                                <path d="M13.9581244,6.33813267 L13.9581244,8.5819547 C13.9581244,10.1245056 12.7062967,11.3796704 11.1672344,11.3796704 C9.62878469,11.3796704 8.37756938,10.1245056 8.37756938,8.5819547 L8.37756938,6.33813267 L3.58767464,6.33813267 C1.60949282,6.33813267 0,7.95130193 0,9.93475709 L0,16.6078862 L28.8949282,16.6078862 L28.8949282,6.33813267 L13.9581244,6.33813267 Z" id="Fill-33" fill="#9BE1F2" mask="url(#mask-4)"></path>
                            </g>
                            <g id="Group-8" transform="translate(0.000000, 25.454545)">
                                <g id="Oval-13">
                                    <use fill="#FFFFFF" fill-rule="evenodd" xlink:href="#path-5"></use>
                                    <ellipse stroke="#9CABB5" stroke-width="3" cx="18.9090909" cy="18.5454545" rx="17.4090909" ry="17.0454545"></ellipse>
                                </g>
                                <path d="M18.5773525,5.20574163 L18.5773525,18.2200957" id="Line-3" stroke="#8BC653" stroke-width="3" stroke-linecap="round"></path>
                                <path d="M18.5773525,32.5358852 L18.5773525,31.2344498" id="Line-3" stroke="#8BC653" stroke-width="3" stroke-linecap="round"></path>
                                <path d="M27.5342903,23.1004785 L18.5773525,18.5454545" id="Line-3" stroke="#8BC653" stroke-width="3" stroke-linecap="round"></path>
                                <path d="M4.64433812,19.1961722 L5.97129187,19.1961722" id="Line-4" stroke="#8BC653" stroke-width="3" stroke-linecap="round"></path>
                                <path d="M31.84689,19.1961722 L33.1738437,19.1961722" id="Line-4" stroke="#8BC653" stroke-width="3" stroke-linecap="round"></path>
                            </g>
                        </g>
                    </g>
                </g>
            </g>
        </g>
    </g>
</svg>